<mxfile host="app.diagrams.net" modified="2023-11-28T13:03:37.995Z" agent="Mozilla/5.0 (Windows NT 10.0; Win64; x64) AppleWebKit/537.36 (KHTML, like Gecko) Chrome/119.0.0.0 Safari/537.36 Edg/119.0.0.0" etag="eJEPS4t9L1I3Eojosodu" version="22.1.4" type="device">
  <diagram name="PÃ¡gina-1" id="7hXf3J9NgINoJXmG1enp">
    <mxGraphModel dx="689" dy="500" grid="1" gridSize="10" guides="1" tooltips="1" connect="1" arrows="1" fold="1" page="1" pageScale="1" pageWidth="827" pageHeight="1169" math="0" shadow="0">
      <root>
        <mxCell id="0" />
        <mxCell id="1" parent="0" />
        <mxCell id="b0cNOqCU77R_RurWpy_W-14" value="" style="verticalLabelPosition=top;verticalAlign=bottom;html=1;shape=mxgraph.basic.patternFillRect;fillStyle=diagGrid;step=5;fillStrokeWidth=0.2;fillStrokeColor=#dddddd;fillColor=#f5f5f5;strokeColor=#B0B0B0;fontColor=#333333;dashed=1;perimeterSpacing=1;strokeWidth=2;shadow=0;labelPosition=center;align=center;" vertex="1" parent="1">
          <mxGeometry x="160" y="45" width="190" height="90" as="geometry" />
        </mxCell>
        <mxCell id="b0cNOqCU77R_RurWpy_W-15" value="&lt;b&gt;ISP&lt;/b&gt;:&lt;b&gt; &lt;/b&gt;DIGI Mobil&lt;br&gt;&lt;b&gt;Speed&lt;/b&gt;: 10 GB/s&lt;br&gt;&lt;div style=&quot;&quot;&gt;&lt;span style=&quot;background-color: initial;&quot;&gt;&lt;b&gt;IPv4&lt;/b&gt;: 192.168.1.1&lt;/span&gt;&lt;/div&gt;" style="text;html=1;align=left;verticalAlign=middle;resizable=0;points=[];autosize=1;strokeColor=none;fillColor=none;" vertex="1" parent="1">
          <mxGeometry x="173" y="60" width="120" height="60" as="geometry" />
        </mxCell>
        <mxCell id="b0cNOqCU77R_RurWpy_W-5" value="" style="verticalLabelPosition=bottom;verticalAlign=top;html=1;shape=mxgraph.basic.rect;fillColor2=none;strokeWidth=3;size=20;indent=11.75;labelBackgroundColor=none;fillColor=#FFE6CC;strokeColor=#FFCC99;fillStyle=solid;gradientColor=none;dashed=1;shadow=0;" vertex="1" parent="1">
          <mxGeometry x="110" y="316.74" width="690" height="313.26" as="geometry" />
        </mxCell>
        <mxCell id="0mbT-ugMoOywV2lqdalF-1" value="" style="verticalLabelPosition=top;verticalAlign=bottom;html=1;shape=mxgraph.basic.patternFillRect;fillStyle=diagGrid;step=5;fillStrokeWidth=0.2;fillStrokeColor=#dddddd;fillColor=#f5f5f5;strokeColor=#B0B0B0;fontColor=#333333;dashed=1;perimeterSpacing=1;strokeWidth=2;shadow=0;labelPosition=center;align=center;" parent="1" vertex="1">
          <mxGeometry x="180" y="290" width="430" height="90" as="geometry" />
        </mxCell>
        <mxCell id="GFWyF5e6YL6IQcsBzZi1-4" style="edgeStyle=orthogonalEdgeStyle;rounded=0;orthogonalLoop=1;jettySize=auto;html=1;entryX=1;entryY=0.5;entryDx=0;entryDy=0;entryPerimeter=0;endArrow=none;endFill=0;fillColor=#f8cecc;strokeColor=#b85450;strokeWidth=4;" parent="1" edge="1">
          <mxGeometry relative="1" as="geometry">
            <mxPoint x="180" y="260" as="sourcePoint" />
          </mxGeometry>
        </mxCell>
        <mxCell id="GFWyF5e6YL6IQcsBzZi1-9" style="edgeStyle=orthogonalEdgeStyle;rounded=0;orthogonalLoop=1;jettySize=auto;html=1;entryX=1;entryY=0.5;entryDx=0;entryDy=0;entryPerimeter=0;strokeWidth=4;fillColor=#f8cecc;strokeColor=#b85450;endArrow=none;endFill=0;exitX=0;exitY=0.5;exitDx=0;exitDy=0;" parent="1" edge="1">
          <mxGeometry relative="1" as="geometry">
            <mxPoint x="320" y="260" as="sourcePoint" />
          </mxGeometry>
        </mxCell>
        <mxCell id="0mbT-ugMoOywV2lqdalF-2" value="Intel NUC 11&#xa;PAHi700000" style="shape=image;verticalLabelPosition=top;labelBackgroundColor=none;verticalAlign=bottom;aspect=fixed;imageAspect=0;image=https://www.virten.net/wp-content/uploads/2023/04/nuc-13-pro-tall-front-straight.png;labelPosition=center;align=center;fontFamily=Lucida Console;fontStyle=0;fontSize=12;" parent="1" vertex="1">
          <mxGeometry x="524" y="262.74" width="261.76" height="147.26" as="geometry" />
        </mxCell>
        <mxCell id="b0cNOqCU77R_RurWpy_W-12" style="edgeStyle=orthogonalEdgeStyle;rounded=0;orthogonalLoop=1;jettySize=auto;html=1;entryX=1;entryY=0.5;entryDx=0;entryDy=0;endArrow=none;endFill=0;" edge="1" parent="1" source="0mbT-ugMoOywV2lqdalF-5" target="b0cNOqCU77R_RurWpy_W-11">
          <mxGeometry relative="1" as="geometry">
            <Array as="points">
              <mxPoint x="437" y="90" />
            </Array>
          </mxGeometry>
        </mxCell>
        <mxCell id="0mbT-ugMoOywV2lqdalF-5" value="vmbr0" style="shape=image;verticalLabelPosition=top;labelBackgroundColor=default;verticalAlign=bottom;aspect=fixed;imageAspect=0;image=https://png.pngtree.com/png-vector/20220903/ourmid/pngtree-ethernet-port-png-image_6135720.png;fontFamily=Lucida Console;fontStyle=0;fontSize=12;labelPosition=center;align=center;strokeWidth=2;" parent="1" vertex="1">
          <mxGeometry x="410" y="262.74" width="55" height="55" as="geometry" />
        </mxCell>
        <mxCell id="0mbT-ugMoOywV2lqdalF-6" value="8.0.2" style="shape=image;verticalLabelPosition=bottom;labelBackgroundColor=none;verticalAlign=top;aspect=fixed;imageAspect=0;image=https://netdata.cloud/img/proxmox.png;fontFamily=Lucida Console;fontStyle=0;labelPosition=center;align=center;" parent="1" vertex="1">
          <mxGeometry x="482" y="302" width="46.5" height="46.5" as="geometry" />
        </mxCell>
        <mxCell id="0mbT-ugMoOywV2lqdalF-14" value="&lt;b style=&quot;border-color: var(--border-color);&quot;&gt;CPU&lt;/b&gt;: i7-1165G7 @ 2.80GHz&lt;br&gt;&lt;b&gt;RAM&lt;/b&gt;: 32GB DDR4&lt;br&gt;&lt;div style=&quot;&quot;&gt;&lt;span style=&quot;background-color: initial;&quot;&gt;&lt;b&gt;HDD&lt;/b&gt;: 4TB (2TB NMVe + 2TB SSD)&lt;/span&gt;&lt;/div&gt;&lt;div style=&quot;&quot;&gt;&lt;span style=&quot;background-color: initial;&quot;&gt;&lt;b&gt;IPv4&lt;/b&gt;: 192.168.1.200&lt;/span&gt;&lt;/div&gt;&lt;div style=&quot;&quot;&gt;&lt;b&gt;Host&lt;/b&gt;: avengers.lab.kike.wtf&lt;span style=&quot;background-color: initial;&quot;&gt;&lt;br&gt;&lt;/span&gt;&lt;/div&gt;" style="text;html=1;align=left;verticalAlign=middle;resizable=0;points=[];autosize=1;strokeColor=none;fillColor=none;" parent="1" vertex="1">
          <mxGeometry x="196" y="291.37" width="210" height="90" as="geometry" />
        </mxCell>
        <mxCell id="b0cNOqCU77R_RurWpy_W-6" value="" style="verticalLabelPosition=bottom;verticalAlign=top;html=1;shape=mxgraph.basic.rect;fillColor2=none;strokeWidth=3;size=13.5;indent=1.14;labelBackgroundColor=none;fillColor=#e1d5e7;strokeColor=#9673a6;fillStyle=solid;dashed=1;" vertex="1" parent="1">
          <mxGeometry x="135" y="420" width="310" height="190" as="geometry" />
        </mxCell>
        <mxCell id="b0cNOqCU77R_RurWpy_W-2" value="" style="verticalLabelPosition=top;verticalAlign=bottom;html=1;shape=mxgraph.basic.patternFillRect;fillStyle=diagGrid;step=5;fillStrokeWidth=0.2;fillStrokeColor=#dddddd;fillColor=#f5f5f5;strokeColor=#B0B0B0;fontColor=#333333;dashed=1;perimeterSpacing=1;strokeWidth=2;shadow=0;labelPosition=center;align=center;" vertex="1" parent="1">
          <mxGeometry x="150" y="400" width="280" height="90" as="geometry" />
        </mxCell>
        <mxCell id="b0cNOqCU77R_RurWpy_W-3" value="12.2&#xa;(bookworm)" style="shape=image;verticalLabelPosition=bottom;labelBackgroundColor=none;verticalAlign=top;aspect=fixed;imageAspect=0;image=https://upload.wikimedia.org/wikipedia/commons/thumb/6/66/Openlogo-debianV2.svg/1200px-Openlogo-debianV2.svg.png;fontFamily=Lucida Console;" vertex="1" parent="1">
          <mxGeometry x="369.99999999999994" y="414" width="25.53" height="31.61" as="geometry" />
        </mxCell>
        <mxCell id="b0cNOqCU77R_RurWpy_W-4" value="&lt;b style=&quot;border-color: var(--border-color);&quot;&gt;CPU&lt;/b&gt;: 1 Core&lt;br&gt;&lt;b&gt;RAM&lt;/b&gt;: 512 MiB&lt;br&gt;&lt;div style=&quot;&quot;&gt;&lt;span style=&quot;background-color: initial;&quot;&gt;&lt;b&gt;HDD&lt;/b&gt;: 8GB&lt;/span&gt;&lt;/div&gt;&lt;div style=&quot;&quot;&gt;&lt;span style=&quot;background-color: initial;&quot;&gt;&lt;b&gt;IPv4&lt;/b&gt;: 192.168.1.4&lt;/span&gt;&lt;/div&gt;&lt;div style=&quot;&quot;&gt;&lt;span style=&quot;background-color: initial;&quot;&gt;&lt;b&gt;Host&lt;/b&gt;: loki.lab.kike.wtf&lt;/span&gt;&lt;/div&gt;" style="text;html=1;align=left;verticalAlign=middle;resizable=0;points=[];autosize=1;strokeColor=none;fillColor=none;" vertex="1" parent="1">
          <mxGeometry x="160" y="400" width="140" height="90" as="geometry" />
        </mxCell>
        <mxCell id="b0cNOqCU77R_RurWpy_W-8" value="kikewtf.duckdns.org" style="shape=image;verticalLabelPosition=bottom;labelBackgroundColor=none;verticalAlign=top;aspect=fixed;imageAspect=0;image=https://raw.githubusercontent.com/linuxserver/docker-templates/master/linuxserver.io/img/duckdns.png;fontFamily=Helvetica;" vertex="1" parent="1">
          <mxGeometry x="175" y="508.5" width="60" height="60" as="geometry" />
        </mxCell>
        <mxCell id="b0cNOqCU77R_RurWpy_W-16" style="edgeStyle=orthogonalEdgeStyle;rounded=0;orthogonalLoop=1;jettySize=auto;html=1;endArrow=none;endFill=0;fillColor=#f8cecc;strokeColor=#b85450;dashed=1;" edge="1" parent="1" source="b0cNOqCU77R_RurWpy_W-9" target="b0cNOqCU77R_RurWpy_W-11">
          <mxGeometry relative="1" as="geometry">
            <Array as="points">
              <mxPoint x="305" y="650" />
              <mxPoint x="90" y="650" />
              <mxPoint x="90" y="270" />
              <mxPoint x="337" y="270" />
            </Array>
          </mxGeometry>
        </mxCell>
        <mxCell id="b0cNOqCU77R_RurWpy_W-9" value="636/TCP" style="shape=image;verticalLabelPosition=bottom;labelBackgroundColor=#e1d5e7;verticalAlign=top;aspect=fixed;imageAspect=0;image=https://blog.irontec.com/wp-content/uploads/2018/07/open_ldap_plain_caterpillar-999px.png;" vertex="1" parent="1">
          <mxGeometry x="282.03" y="503.5" width="45.93" height="65" as="geometry" />
        </mxCell>
        <mxCell id="b0cNOqCU77R_RurWpy_W-10" value="80/TCP (/lam/)" style="shape=image;verticalLabelPosition=bottom;labelBackgroundColor=none;verticalAlign=top;aspect=fixed;imageAspect=0;image=https://somebooks.es/wp-content/uploads/2022/03/Logo%20LDAP%20AM.png;" vertex="1" parent="1">
          <mxGeometry x="359" y="513" width="55" height="55" as="geometry" />
        </mxCell>
        <mxCell id="b0cNOqCU77R_RurWpy_W-11" value="&lt;font face=&quot;Lucida Console&quot;&gt;&lt;span style=&quot;font-weight: normal;&quot;&gt;ISP Router&lt;/span&gt;&lt;/font&gt;" style="image;html=1;image=img/lib/clip_art/networking/Modem_128x128.png;fontStyle=1" vertex="1" parent="1">
          <mxGeometry x="279.53" y="40" width="116" height="100" as="geometry" />
        </mxCell>
      </root>
    </mxGraphModel>
  </diagram>
</mxfile>
